<?xml version="1.0" standalone="no"?>
<!DOCTYPE svg PUBLIC "-//W3C//DTD SVG 1.1//EN" "http://www.w3.org/Graphics/SVG/1.1/DTD/svg11.dtd" >
<svg xmlns="http://www.w3.org/2000/svg" xmlns:xlink="http://www.w3.org/1999/xlink" version="1.1">
<metadata></metadata>
<defs>
<font id="ramsbold" horiz-adv-x="1126" >
<font-face units-per-em="2048" ascent="1536" descent="-512" />
<missing-glyph horiz-adv-x="491" />
<glyph unicode="&#xfb01;" horiz-adv-x="1236" d="M61 758v221h134v139q0 58 12.5 109t43.5 97.5t78.5 80t122 53t169.5 19.5v-197q-97 0 -140 -38t-43 -97v-166h631v-979h-250v758h-381v-758h-243v758h-134zM815 1139v256h258v-256h-258z" />
<glyph unicode="&#xfb02;" horiz-adv-x="1212" d="M61 758v221h134v139q0 74 21.5 135t68.5 112.5t132.5 80.5t203.5 29h438v-1475h-244v1280h-194q-97 0 -140 -38t-43 -97v-166h180v-221h-180v-758h-243v758h-134z" />
<glyph horiz-adv-x="0" />
<glyph horiz-adv-x="682" />
<glyph unicode=" "  horiz-adv-x="491" />
<glyph unicode="&#x09;" horiz-adv-x="491" />
<glyph unicode="&#xa0;" horiz-adv-x="491" />
<glyph unicode="!" horiz-adv-x="636" d="M184 0v266h269v-266h-269zM190 672v803h254v-803l-20 -254h-213z" />
<glyph unicode="&#x22;" horiz-adv-x="829" d="M123 936v539h239l-67 -539h-172zM508 936v539h240l-68 -539h-172z" />
<glyph unicode="#" d="M51 348v242h230l24 180h-194v242h231l53 385h201l-57 -385h139l55 385h199l-55 -385h198v-242h-233l-27 -180h203v-242h-238l-49 -348h-201l52 348h-140l-51 -348h-196l51 348h-195zM479 590h137l27 180h-139z" />
<glyph unicode="$" d="M88 1030q0 158 111.5 251.5t283.5 113.5v188h146v-184q83 -4 160.5 -21.5t114.5 -33.5l36 -15v-239q-15 8 -42.5 19.5t-109 33.5t-159.5 28v-337q53 -18 86 -30.5t82.5 -35.5t80.5 -44.5t67 -54.5t56 -69.5t34 -86.5t14 -107q0 -155 -110 -268t-310 -138v-219h-146v215 q-65 3 -129 15.5t-109.5 28t-82 30.5t-54.5 26l-18 10v248q7 -5 19.5 -13t53.5 -29t84 -37.5t107.5 -31.5t128.5 -18v396q-58 21 -96.5 37t-89.5 42t-84 55.5t-64 69t-46 91.5t-15 114zM336 1040q0 -53 37.5 -88.5t109.5 -66.5v282q-147 -26 -147 -127zM629 233 q75 12 122.5 51t47.5 113q0 58 -43.5 97.5t-126.5 74.5v-336z" />
<glyph unicode="%" horiz-adv-x="1705" d="M102 1083q0 139 98.5 237.5t235.5 98.5q140 0 239 -98.5t99 -237.5q0 -138 -98.5 -235.5t-239.5 -97.5q-139 0 -236.5 97.5t-97.5 235.5zM303 1083q0 -56 39 -95.5t94 -39.5q57 0 96 39t39 96q0 59 -38.5 98.5t-96.5 39.5q-56 0 -94.5 -40t-38.5 -98zM305 0l891 1397h203 l-891 -1397h-203zM932 313q0 139 98.5 237.5t235.5 98.5q140 0 239 -98.5t99 -237.5q0 -138 -98.5 -235.5t-239.5 -97.5q-139 0 -236.5 97.5t-97.5 235.5zM1133 313q0 -56 39 -95.5t94 -39.5q57 0 96 39t39 96q0 59 -38.5 98.5t-96.5 39.5q-56 0 -94.5 -40t-38.5 -98z" />
<glyph unicode="&#x26;" horiz-adv-x="1267" d="M102 446q0 71 18.5 135.5t45 106.5t53.5 74t45 46l19 15q-4 4 -10.5 12t-22.5 34t-28.5 52.5t-23 66t-10.5 77.5q0 150 113.5 252t292.5 102q77 0 147 -13.5t101 -27.5l32 -14v-244q-16 7 -42 18t-95 29.5t-123 18.5q-78 0 -127 -32.5t-49 -96.5q0 -52 30.5 -101.5 t96.5 -126.5l340 -395q23 50 23 146h235q0 -192 -96 -334l139 -160l-170 -156l-129 150q-143 -103 -321 -103q-110 0 -203.5 41t-153.5 108t-93.5 150t-33.5 170zM346 467q0 -101 66.5 -179.5t177.5 -78.5q95 0 166 47q-178 203 -338 393q-72 -77 -72 -182z" />
<glyph unicode="'" horiz-adv-x="444" d="M123 936v539h239l-67 -539h-172z" />
<glyph unicode="(" horiz-adv-x="651" d="M123 528q0 247 78.5 481.5t267.5 487.5l182 -108q-158 -247 -219 -455.5t-61 -405.5t61 -403.5t219 -458.5l-182 -112q-189 257 -267.5 494.5t-78.5 479.5z" />
<glyph unicode=")" horiz-adv-x="651" d="M0 -334q158 252 219.5 459t61.5 403t-61.5 405t-219.5 456l182 108q189 -253 267.5 -487.5t78.5 -481.5q0 -242 -78.5 -479.5t-267.5 -494.5z" />
<glyph unicode="*" horiz-adv-x="1040" d="M82 1147q0 46 31 78t75 32q23 0 43 -10l215 -112l-30 211q-4 32 -4 51q0 42 32 70t76 28t76.5 -29t32.5 -71q0 -21 -4 -49l-31 -211l215 112q20 10 45 10q46 0 75 -33t29 -77q0 -43 -25.5 -73t-60.5 -36l-235 -45l168 -164q29 -29 29 -73q0 -42 -33.5 -74.5t-79.5 -32.5 q-66 0 -92 51l-109 205l-110 -207q-25 -49 -93 -49q-46 0 -78 31.5t-32 77.5q0 42 31 73l165 162l-235 45q-39 8 -62.5 36t-23.5 73z" />
<glyph unicode="+" d="M123 555v221h330v330h221v-330h330v-221h-330v-330h-221v330h-330z" />
<glyph unicode="," horiz-adv-x="591" d="M143 -250l117 223v27h-80v266h269v-276l-197 -305z" />
<glyph unicode="-" horiz-adv-x="778" d="M123 436v223h532v-223h-532z" />
<glyph unicode="." horiz-adv-x="555" d="M143 0v266h269v-266h-269z" />
<glyph unicode="/" horiz-adv-x="692" d="M20 -20l431 1437h221l-430 -1437h-222z" />
<glyph unicode="0" d="M82 700q0 211 62.5 376t171.5 254t245 89q209 0 346 -200t137 -519q0 -320 -137 -520t-346 -200q-208 0 -343.5 200t-135.5 520zM326 700q0 -226 65.5 -359.5t169.5 -133.5q106 0 173 134t67 359q0 224 -67 358t-173 134q-104 0 -169.5 -134t-65.5 -358z" />
<glyph unicode="1" d="M178 0v227h314v901l-275 -139v250l301 156h217v-1168h309v-227h-866z" />
<glyph unicode="2" d="M68 0q221 280 305 391q69 90 97.5 128t77 106t68.5 104.5t44.5 87.5t33 92t8.5 84q0 84 -56 141.5t-154 57.5q-67 0 -152.5 -33t-137.5 -65l-52 -33v246q7 4 20.5 11.5t55 26.5t84.5 33.5t105 26.5t120 12q192 0 304.5 -112t112.5 -297q0 -84 -24 -167t-79.5 -180.5 t-124 -193.5t-179.5 -236h463v-231h-940z" />
<glyph unicode="3" d="M133 76v262q7 -5 20 -13.5t53.5 -30.5t81.5 -39t98.5 -30.5t109.5 -13.5q98 0 161.5 54t63.5 141q0 89 -75.5 146.5t-217.5 57.5v230q132 0 198 50.5t66 135.5q0 68 -51 114t-133 46q-70 0 -153 -26t-131 -52l-48 -25v242q20 10 55 25.5t130.5 41t177.5 25.5 q183 0 292 -105.5t109 -269.5q0 -57 -15 -109.5t-37 -86t-43.5 -59t-36.5 -37.5l-15 -11q7 -4 19.5 -11.5t43.5 -36t54.5 -63t43 -94.5t19.5 -128q0 -185 -130.5 -305.5t-340.5 -120.5q-94 0 -186 24t-138 48z" />
<glyph unicode="4" d="M45 328l526 1067h275l-414 -840h264v229h244v-229h133v-227h-133v-328h-244v328h-651z" />
<glyph unicode="5" d="M152 84v256q7 -5 19.5 -14t51 -31t77 -39t93 -31t103.5 -14q116 0 189 66t73 159q0 97 -83 163.5t-220 66.5q-41 0 -105 -6t-108 -12l-43 -7l86 754h653v-228h-440l-33 -274q29 2 49 2q218 0 355 -130.5t137 -320.5q0 -133 -67 -240t-180.5 -165.5t-248.5 -58.5 q-59 0 -117.5 10.5t-100 26t-74.5 31t-50 26.5z" />
<glyph unicode="6" d="M131 485q0 269 151 511.5t431 435.5l153 -189q-96 -59 -175.5 -123t-149 -148.5t-101.5 -170.5q72 37 176 37q173 0 292.5 -122.5t119.5 -295.5q0 -184 -128.5 -312t-319.5 -128q-202 0 -325.5 137.5t-123.5 367.5zM375 469q0 -121 58.5 -191.5t152.5 -70.5 q83 0 139.5 58.5t56.5 146.5q0 85 -59 143.5t-145 58.5q-34 0 -67 -7t-54.5 -17t-38.5 -20.5t-25 -17.5l-8 -7q-10 -39 -10 -76z" />
<glyph unicode="7" d="M145 1169v228h953l-625 -1397h-268l534 1169h-594z" />
<glyph unicode="8" d="M90 387q0 63 18.5 120.5t45.5 94t54 64.5t46 40l18 13q-6 4 -16 11t-35 33.5t-44.5 57.5t-35.5 83t-16 110q0 178 125.5 291.5t312.5 113.5t312.5 -113.5t125.5 -291.5q0 -58 -15 -109.5t-36.5 -84t-43.5 -56.5t-37 -34l-15 -11q7 -4 19.5 -12.5t44 -39.5t55.5 -66.5 t43.5 -93.5t19.5 -122q0 -174 -135 -289.5t-338 -115.5q-204 0 -338.5 116t-134.5 291zM338 401q0 -85 63.5 -139.5t161.5 -54.5t161.5 54.5t63.5 139.5q0 82 -65 136.5t-160 54.5q-98 0 -161.5 -54.5t-63.5 -136.5zM369 1012q0 -74 56.5 -126t137.5 -52q82 0 138.5 52.5 t56.5 127.5q0 76 -56 127t-139 51t-138.5 -50.5t-55.5 -129.5z" />
<glyph unicode="9" d="M102 977q0 184 129 312t320 128q202 0 325 -137.5t123 -368.5q0 -269 -150.5 -511t-430.5 -435l-154 189q96 59 175.5 123t149 148.5t101.5 170.5q-72 -37 -176 -37q-173 0 -292.5 122.5t-119.5 295.5zM348 985q0 -85 59.5 -144t145.5 -59q55 0 103 17.5t68 34.5l21 18 q11 39 11 76q0 121 -58.5 191.5t-152.5 70.5q-84 0 -140.5 -59t-56.5 -146z" />
<glyph unicode=":" horiz-adv-x="555" d="M143 0v266h269v-266h-269zM143 713v266h269v-266h-269z" />
<glyph unicode=";" horiz-adv-x="591" d="M143 -250l117 223v27h-80v266h269v-276l-197 -305zM180 713v266h269v-266h-269z" />
<glyph unicode="&#x3c;" d="M123 575v183l883 405v-245l-607 -250l607 -252v-246z" />
<glyph unicode="=" d="M123 354v221h881v-221h-881zM123 758v221h881v-221h-881z" />
<glyph unicode="&#x3e;" d="M123 170v246l606 252l-606 250v245l883 -405v-183z" />
<glyph unicode="?" horiz-adv-x="866" d="M82 1163v246q19 9 51 23t118 37.5t155 23.5q192 0 295.5 -100t103.5 -246q0 -86 -29 -161t-71.5 -128t-86.5 -97.5t-80.5 -88.5t-45.5 -82q-4 -20 -7.5 -63.5t-4.5 -76.5l-1 -34h-233q-6 131 -6 184q0 49 22.5 98t56 87t73 80t73 78t56 80.5t22.5 86.5q0 62 -37.5 104.5 t-128.5 42.5q-56 0 -129.5 -23.5t-119.5 -47.5zM229 0v266h269v-266h-269z" />
<glyph unicode="@" horiz-adv-x="2113" d="M143 532q0 194 77 371.5t206 306t307.5 205t372.5 76.5q175 0 336.5 -60.5t282.5 -166.5t193.5 -259.5t72.5 -328.5q0 -178 -83 -321t-229.5 -222.5t-328.5 -79.5h-136l-10 99q-4 -5 -11 -13t-32 -28t-53 -35.5t-72.5 -28t-91.5 -12.5q-157 0 -256.5 115t-99.5 307 q0 98 35.5 193.5t98.5 172.5t160.5 124.5t211.5 47.5q45 0 86.5 -11.5t68.5 -28.5t47.5 -34t29.5 -29l9 -11l27 96h211l-162 -744q62 0 126 29.5t118 83t88.5 139t34.5 187.5q0 174 -89 314t-243 218t-342 78q-153 0 -291 -59.5t-237.5 -160t-158.5 -240t-59 -292.5 q0 -205 98.5 -377.5t271 -273t378.5 -100.5q69 0 138 12t124 31.5t105.5 43t87 47.5t64 43.5t41.5 31.5l13 12v-242q-10 -7 -28 -19.5t-77.5 -44.5t-122.5 -56t-158.5 -44t-190.5 -20q-197 0 -375 75t-306 203t-203 305.5t-75 374.5zM811 455q0 -98 45.5 -157.5t126.5 -59.5 q85 0 152 57t100 140.5t33 172.5q0 91 -46.5 135.5t-129.5 44.5q-123 0 -202 -102t-79 -231z" />
<glyph unicode="A" horiz-adv-x="1310" d="M31 0l624 1483l625 -1483h-270l-109 283h-491l-109 -283h-270zM492 504h327l-164 420z" />
<glyph unicode="B" horiz-adv-x="1277" d="M174 0v1397h488q230 0 354.5 -102t124.5 -279q0 -50 -15.5 -97.5t-37.5 -79t-44 -55.5t-38 -36l-15 -11q8 -4 21 -11t46.5 -36t59.5 -64.5t47 -96.5t21 -132q0 -184 -126 -290.5t-345 -106.5h-541zM420 227h272q119 0 181.5 49t62.5 134q0 90 -61.5 138t-198.5 48h-256 v-369zM420 817h244q110 0 168.5 46.5t58.5 137.5q0 79 -60 123.5t-169 44.5h-242v-352z" />
<glyph unicode="C" horiz-adv-x="1226" d="M82 700q0 147 56 280t150.5 228.5t224.5 152t273 56.5q62 0 120.5 -7t97 -16.5t68 -19.5t42.5 -17l14 -7v-258q-5 4 -15.5 10.5t-44.5 23t-71.5 29t-94.5 23t-116 10.5q-91 0 -175 -38.5t-145.5 -103.5t-98.5 -156t-37 -192q0 -135 62 -248t165 -177t223 -64q67 0 130 14 t105.5 33.5t75.5 39.5t49 34l15 14v-274q-5 -4 -15 -10t-45.5 -21.5t-75.5 -27.5t-105 -21.5t-134 -9.5q-199 0 -359.5 96t-249.5 260.5t-89 363.5z" />
<glyph unicode="D" horiz-adv-x="1390" d="M174 0v1397h399q173 0 312.5 -52t232 -144.5t142 -221t49.5 -281.5q0 -151 -49.5 -279t-142 -221t-232.5 -145.5t-312 -52.5h-399zM424 227h158q225 0 352 131.5t127 339.5q0 210 -126.5 340.5t-352.5 130.5h-158v-942z" />
<glyph unicode="E" horiz-adv-x="1191" d="M174 0v1397h932v-236h-686v-338h577v-235h-577v-355h700v-233h-946z" />
<glyph unicode="F" horiz-adv-x="1081" d="M174 0v1397h856v-236h-612v-338h553v-235h-551v-588h-246z" />
<glyph unicode="G" horiz-adv-x="1486" d="M82 700q0 147 56.5 279t155 228t237.5 152t296 56q73 0 145.5 -10t123.5 -24t91.5 -28t60.5 -24l20 -10v-252q-8 5 -23.5 13t-63 29t-95.5 37t-115.5 29t-128.5 13q-147 0 -265.5 -66t-183.5 -177.5t-65 -244.5q0 -146 67.5 -259.5t177 -172.5t240.5 -59q55 0 106.5 9 t86.5 22t62 26t40 22l12 9v201h-426v233h670v-534q-9 -9 -25.5 -23.5t-74 -51.5t-121 -65.5t-163 -51.5t-202.5 -23q-185 0 -343 88.5t-255.5 254.5t-97.5 375z" />
<glyph unicode="H" horiz-adv-x="1464" d="M174 0v1397h246v-574h624v574h246v-1397h-246v588h-624v-588h-246z" />
<glyph unicode="I" horiz-adv-x="598" d="M174 0v1397h250v-1397h-250z" />
<glyph unicode="J" horiz-adv-x="624" d="M61 0v215h43q51 0 86 38.5t35 102.5v1041h246v-1057q0 -151 -86 -245.5t-235 -94.5h-89z" />
<glyph unicode="K" horiz-adv-x="1259" d="M174 0v1397h246v-570l465 570h307l-533 -635l590 -762h-325l-428 567l-76 -84v-483h-246z" />
<glyph unicode="L" horiz-adv-x="1107" d="M174 0v1397h244v-1164h649v-233h-893z" />
<glyph unicode="M" horiz-adv-x="1716" d="M174 0v1475l684 -715l684 715v-1475h-246v883l-438 -463l-438 463v-883h-246z" />
<glyph unicode="N" horiz-adv-x="1464" d="M174 0v1475l870 -938v860h246v-1475l-870 938v-860h-246z" />
<glyph unicode="O" horiz-adv-x="1615" d="M82 700q0 146 57.5 279t155 229t231.5 152.5t281 56.5q198 0 365.5 -96t264.5 -261t97 -360q0 -146 -57.5 -279.5t-154.5 -230t-232 -153.5t-283 -57q-196 0 -363 96.5t-264.5 262.5t-97.5 361zM326 700q0 -131 64.5 -244t175.5 -180t241 -67t242 67t176.5 180t64.5 244 q0 98 -38.5 188t-103 156t-154 105t-187.5 39q-97 0 -186 -39t-153.5 -105t-103 -156t-38.5 -188z" />
<glyph unicode="P" horiz-adv-x="1216" d="M174 0v1397h518q108 0 197 -35t146.5 -95.5t88.5 -139.5t31 -169q0 -188 -125 -315t-338 -127h-272v-516h-246zM420 748h270q103 0 163 56.5t60 151.5t-60.5 153t-162.5 58h-270v-419z" />
<glyph unicode="Q" horiz-adv-x="1615" d="M82 700q0 146 57.5 279t155 229t231.5 152.5t281 56.5q198 0 365.5 -96t264.5 -261t97 -360q0 -200 -103.5 -369t-275.5 -263l326 -211v-289l-639 414q-12 -2 -35 -2q-196 0 -363 96.5t-264.5 262.5t-97.5 361zM326 700q0 -131 64.5 -244t175.5 -180t241 -67t242 67 t176.5 180t64.5 244q0 98 -38.5 188t-103 156t-154 105t-187.5 39q-97 0 -186 -39t-153.5 -105t-103 -156t-38.5 -188z" />
<glyph unicode="R" horiz-adv-x="1288" d="M174 0v1397h522q199 0 321 -121.5t122 -298.5q0 -150 -84.5 -257t-214.5 -147l417 -573h-323l-492 745h203q122 0 188 61.5t66 149.5q0 85 -59 148t-148 63h-274v-1167h-244z" />
<glyph unicode="S" horiz-adv-x="1124" d="M102 92v266q8 -6 23 -16t61 -35t92.5 -44.5t111.5 -35.5t124 -16q47 0 93.5 9.5t89.5 30t69.5 58.5t26.5 88q0 51 -38 90.5t-98.5 66.5t-133.5 53.5t-146.5 61t-134 79t-98.5 117t-38 165.5q0 94 38.5 169t104.5 122t150.5 71.5t180.5 24.5q60 0 119 -7.5t100.5 -17.5 t74.5 -20.5t50 -17.5l16 -8l-2 -240q-18 9 -50 23t-125.5 37.5t-180.5 23.5q-93 0 -160.5 -38.5t-67.5 -111.5q0 -42 29.5 -76t78 -56.5t110.5 -47.5t126 -48t126 -59.5t110.5 -80.5t78 -112.5t29.5 -153.5q0 -84 -33 -160t-95.5 -136t-163 -95t-226.5 -35q-71 0 -140 11.5 t-118 28t-87.5 33t-57.5 27.5z" />
<glyph unicode="T" horiz-adv-x="1081" d="M41 1161v236h999v-236h-376v-1161h-246v1161h-377z" />
<glyph unicode="U" horiz-adv-x="1443" d="M154 573v824h245v-840q0 -149 90.5 -247.5t233.5 -98.5q140 0 230.5 98.5t90.5 247.5v840h246v-824q0 -121 -33 -221.5t-88 -168t-129 -114.5t-153.5 -68t-163.5 -21q-87 0 -168 21.5t-154.5 68t-128 114.5t-86.5 168t-32 221z" />
<glyph unicode="V" horiz-adv-x="1331" d="M41 1397h270l355 -924l354 924h270l-624 -1483z" />
<glyph unicode="W" horiz-adv-x="2017" d="M61 1397h265l276 -879l408 932l405 -930l275 877h266l-508 -1485l-438 977l-443 -975z" />
<glyph unicode="X" horiz-adv-x="1312" d="M41 0l471 725l-440 672h290l295 -482l291 482h291l-440 -672l473 -725h-289l-326 528l-329 -528h-287z" />
<glyph unicode="Y" horiz-adv-x="1253" d="M20 1397h273l334 -617l334 617h272l-483 -838v-559h-246v559z" />
<glyph unicode="Z" horiz-adv-x="1210" d="M51 0l697 1165h-617v232h1028l-694 -1166h643v-231h-1057z" />
<glyph unicode="[" horiz-adv-x="649" d="M174 -410v1805h434v-211h-192v-1385h192v-209h-434z" />
<glyph unicode="\" horiz-adv-x="692" d="M20 1417h222l430 -1437h-221z" />
<glyph unicode="]" horiz-adv-x="649" d="M41 -201h192v1385h-192v211h434v-1805h-434v209z" />
<glyph unicode="^" horiz-adv-x="1021" d="M61 612l355 783h190l355 -783h-254l-195 500l-195 -500h-256z" />
<glyph unicode="_" horiz-adv-x="999" d="M-10 -154h1020v-170h-1020v170z" />
<glyph unicode="`" horiz-adv-x="497" d="M0 1253l115 213l383 -229l-70 -158z" />
<glyph unicode="a" horiz-adv-x="1236" d="M82 489q0 108 40 204t106.5 162.5t154 105t180.5 38.5q55 0 103.5 -12t79.5 -29t53.5 -34t32.5 -29l10 -12l10 96h231v-979h-231l-10 96q-4 -5 -11 -12.5t-33 -27.5t-55.5 -35.5t-78 -28t-101.5 -12.5q-94 0 -181.5 39t-153.5 105.5t-106 162t-40 202.5zM315 489 q0 -119 80 -204.5t199 -85.5q48 0 91 13t70 31.5t47.5 36.5t29.5 31l8 13v333q-3 5 -9 13t-28 29t-48 37t-69.5 29t-91.5 13q-120 0 -199.5 -84.5t-79.5 -204.5z" />
<glyph unicode="b" horiz-adv-x="1226" d="M154 0v1475h243v-594q3 5 10 13t31.5 28t53.5 35.5t78 28.5t104 13q93 0 179 -38.5t150.5 -105.5t103 -162.5t38.5 -203.5q0 -143 -65 -260.5t-173 -183t-233 -65.5q-53 0 -101 12.5t-79.5 30.5t-55.5 36t-34 31l-11 12l-10 -102h-229zM397 324q3 -5 9 -13.5t28 -30 t48 -38t69.5 -30t91.5 -13.5q118 0 193 85t75 205q0 121 -74.5 205t-193.5 84q-48 0 -91 -12.5t-70 -30t-47.5 -35.5t-28.5 -30l-9 -13v-333z" />
<glyph unicode="c" horiz-adv-x="954" d="M82 492q0 214 145 360.5t357 146.5q70 0 139 -15.5t103 -30.5l34 -15v-250q-4 4 -12 10t-35 22t-55.5 28t-73.5 22t-90 10q-119 0 -200 -85t-81 -203q0 -119 80 -206t201 -87q47 0 93 10t78 24.5t57 29t38 24.5l12 10v-246q-4 -3 -12.5 -7.5t-36.5 -17t-59 -22t-80 -17 t-100 -7.5q-139 0 -254.5 68t-181.5 185.5t-66 258.5z" />
<glyph unicode="d" horiz-adv-x="1226" d="M82 489q0 108 38.5 203.5t103 162.5t150.5 105.5t179 38.5q55 0 103.5 -12t78.5 -29.5t52.5 -35t32.5 -29.5l9 -12v594h244v-1475h-229l-10 102q-4 -5 -11.5 -13t-33.5 -29t-56 -37.5t-78.5 -29.5t-101.5 -13q-125 0 -233 65.5t-173 183t-65 260.5zM315 489 q0 -120 75 -205t194 -85q48 0 91 13t70 31.5t47 36.5t28 31l9 13v333q-3 5 -9 13t-28 29t-47.5 37t-69 29t-91.5 13q-119 0 -194 -84t-75 -205z" />
<glyph unicode="e" horiz-adv-x="1132" d="M82 492q0 140 70 257t188 183.5t256 66.5q88 0 165 -29t131 -77t93 -109.5t57.5 -127t18.5 -128.5q0 -35 -3 -67t-6 -47l-3 -15h-723q18 -85 97 -147t193 -62q56 0 113.5 10.5t99 25t75 29.5t50.5 25l17 11v-230q-18 -9 -49.5 -22.5t-128.5 -36t-193 -22.5 q-146 0 -265 68.5t-186 186t-67 257.5zM326 573h510q-8 86 -77.5 154t-172.5 68q-95 0 -169.5 -67t-90.5 -155z" />
<glyph unicode="f" horiz-adv-x="661" d="M61 758v221h134v139q0 58 12.5 109t43.5 97.5t78.5 80t122 53t169.5 19.5v-197q-97 0 -140 -38t-43 -97v-166h180v-221h-180v-758h-243v758h-134z" />
<glyph unicode="g" horiz-adv-x="1226" d="M82 500q0 107 38.5 201t102.5 159t150 102t180 37q53 0 101 -12.5t79.5 -30.5t55.5 -36t35 -30l10 -13l10 102h229v-932q0 -99 -28.5 -180t-77 -135t-113.5 -91.5t-135.5 -54t-145.5 -16.5q-76 0 -146 12.5t-116 30t-81 35.5t-50 30l-16 13l115 192q4 -4 12.5 -10.5 t37 -23.5t59 -30t79 -23.5t98.5 -10.5q107 0 185.5 67.5t78.5 196.5v70q-3 -5 -10 -13t-31.5 -28.5t-53.5 -36t-77.5 -28.5t-103.5 -13q-93 0 -179 37t-150.5 102t-103 159t-38.5 202zM315 500q0 -120 74.5 -199.5t194.5 -79.5q48 0 91 12.5t70 30.5t47 35.5t28 30.5l9 12 v313q-3 5 -9 13.5t-28 30t-47.5 38t-69 30t-91.5 13.5q-119 0 -194 -80.5t-75 -199.5z" />
<glyph unicode="h" horiz-adv-x="1208" d="M154 0v1475h243v-592q4 5 12 12.5t36 27.5t59.5 35.5t82 28t103.5 12.5q178 0 286.5 -112.5t108.5 -294.5v-592h-243v582q0 94 -54 145t-143 51q-44 0 -86 -12t-70 -29t-50 -34t-32 -29l-10 -12v-662h-243z" />
<glyph unicode="i" horiz-adv-x="575" d="M154 1141v256h258v-256h-258zM158 0v979h250v-979h-250z" />
<glyph unicode="j" horiz-adv-x="565" d="M-20 -215q97 0 139.5 38t42.5 97v1059h244v-1032q0 -74 -21.5 -138t-68.5 -119.5t-133 -87.5t-203 -32v215zM156 1141v256h256v-256h-256z" />
<glyph unicode="k" horiz-adv-x="1069" d="M154 0v1475h243v-830l312 334h319l-414 -424l435 -555h-310l-286 387l-56 -55v-332h-243z" />
<glyph unicode="l" horiz-adv-x="550" d="M154 0v1475h243v-1475h-243z" />
<glyph unicode="m" horiz-adv-x="1744" d="M154 0v979h229l8 -113q5 5 15 14t40.5 31.5t62 40t77 31.5t88.5 14q55 0 103 -13.5t77.5 -33.5t51.5 -39.5t31 -32.5l9 -14q5 5 14.5 14t42 31.5t68 40t90.5 31.5t111 14q176 0 263 -105t87 -290v-600h-244v598q0 180 -155 180q-49 0 -102 -27t-81 -54l-28 -27v-670h-244 v600q0 84 -39.5 131t-112.5 47q-52 0 -106.5 -27.5t-83.5 -54.5l-29 -28v-668h-243z" />
<glyph unicode="n" horiz-adv-x="1208" d="M154 0v979h227l12 -115q4 5 12.5 14.5t37 32.5t60.5 41t83 32.5t104 14.5q178 0 286.5 -112.5t108.5 -294.5v-592h-243v582q0 94 -54 145t-143 51q-44 0 -86 -12t-70 -29t-50 -34t-32 -29l-10 -12v-662h-243z" />
<glyph unicode="o" horiz-adv-x="1210" d="M82 489q0 141 68.5 258t188.5 184.5t265 67.5q144 0 264.5 -67.5t190 -185t69.5 -257.5t-69 -257t-189.5 -184.5t-265.5 -67.5q-146 0 -266 67.5t-188 184t-68 257.5zM315 489q0 -122 78.5 -206t210.5 -84q126 0 208.5 85t82.5 205q0 121 -82 206t-209 85 q-126 0 -207.5 -85t-81.5 -206z" />
<glyph unicode="p" horiz-adv-x="1226" d="M154 -410v1389h229l10 -102q4 5 11.5 13t33.5 29t56 37.5t78.5 29.5t101.5 13q93 0 179.5 -39t150.5 -106t102.5 -162.5t38.5 -202.5q0 -108 -38.5 -203.5t-103 -162t-150.5 -105t-179 -38.5q-55 0 -103.5 12t-79 29.5t-53 35t-32.5 29.5l-9 12v-508h-243zM397 322 q3 -5 9 -13t28 -29t48 -37t69.5 -29t91.5 -13q119 0 193.5 83.5t74.5 204.5t-75 206t-193 85q-48 0 -91 -13t-70 -31t-47.5 -36.5t-28.5 -31.5l-9 -13v-333z" />
<glyph unicode="q" horiz-adv-x="1226" d="M82 489q0 107 38.5 202.5t102.5 162.5t150.5 106t179.5 39q53 0 101 -12.5t79.5 -30.5t55.5 -36t35 -30l10 -13l10 102h229v-1389h-244v508q-3 -5 -10 -13t-31.5 -28t-53.5 -35.5t-77.5 -28.5t-103.5 -13q-93 0 -179 38.5t-150.5 105t-103 162t-38.5 203.5zM315 489 q0 -121 75 -204.5t194 -83.5q48 0 91 12.5t70 30.5t47 35.5t28 30.5l9 12v333q-3 5 -9 13.5t-28 30t-47.5 38t-69 30t-91.5 13.5q-118 0 -193.5 -85.5t-75.5 -205.5z" />
<glyph unicode="r" horiz-adv-x="784" d="M154 0v979h221l12 -111q4 5 11.5 14t33.5 31t54.5 39t73 31t89.5 14q31 0 57.5 -2.5t37.5 -4.5l10 -3l-2 -231q-54 18 -113 18q-78 0 -135 -41.5t-83 -103t-26 -131.5v-498h-241z" />
<glyph unicode="s" horiz-adv-x="940" d="M102 692q0 142 109 224.5t270 82.5q83 0 158.5 -15.5t110.5 -31.5l34 -16l-2 -227q-6 3 -16.5 8.5t-43.5 20t-66.5 25t-82.5 19.5t-94 9q-51 0 -90 -22t-39 -60q0 -25 28 -45t73 -34.5t99 -30.5t108 -40t99 -55.5t73 -83.5t28 -119q0 -142 -108 -231.5t-308 -89.5 q-81 0 -163.5 21.5t-124.5 42.5l-43 22v241q6 -5 17 -12.5t46.5 -26.5t72 -34t90 -27t103.5 -12q32 0 59.5 4t53.5 12.5t41.5 26t15.5 41.5q0 30 -28 52t-73 37t-99 30.5t-108 38t-99 53t-73 82.5t-28 120z" />
<glyph unicode="t" horiz-adv-x="700" d="M61 758v221h142v215h246v-215h210v-221h-210v-758h-246v758h-142z" />
<glyph unicode="u" horiz-adv-x="1208" d="M123 387v592h244v-582q0 -94 53.5 -145t142.5 -51q44 0 86 12t70 29t50 34t32 29l10 12v662h244v-979h-228l-12 113q-4 -5 -12.5 -14t-37 -32t-60.5 -40.5t-83 -32t-104 -14.5q-178 0 -286.5 112.5t-108.5 294.5z" />
<glyph unicode="v" horiz-adv-x="1036" d="M20 979h252l246 -588l246 588h252l-498 -1055z" />
<glyph unicode="w" horiz-adv-x="1669" d="M61 979h252l226 -582l297 600l297 -600l223 582h252l-443 -1045l-331 609l-330 -609z" />
<glyph unicode="x" horiz-adv-x="1071" d="M41 0l354 502l-332 477h283l191 -293l188 293h285l-334 -477l354 -502h-287l-206 315l-209 -315h-287z" />
<glyph unicode="y" horiz-adv-x="1105" d="M20 979h259l284 -651l277 651h245l-614 -1389h-244l211 473z" />
<glyph unicode="z" horiz-adv-x="1060" d="M61 0l529 760h-449v219h858l-522 -760h467v-219h-883z" />
<glyph unicode="{" horiz-adv-x="671" d="M41 387v213q69 0 114.5 43.5t45.5 110.5v366q0 120 66 197.5t175 77.5h189v-211h-109q-38 0 -61 -26t-23 -77v-336q0 -48 -12 -91t-29 -71t-34 -49t-29 -30l-12 -10q5 -4 12.5 -10.5t27.5 -30.5t35.5 -51t28 -71t12.5 -91v-336q0 -51 23 -77t61 -26h109v-211h-189 q-109 0 -175 77.5t-66 197.5v368q0 66 -45.5 110t-114.5 44z" />
<glyph unicode="|" horiz-adv-x="595" d="M184 -428v1921h228v-1921h-228z" />
<glyph unicode="}" horiz-adv-x="671" d="M41 -199h109q38 0 60.5 26t22.5 77v336q0 47 12 90.5t29 72t34.5 50t29.5 31.5l12 10q-5 3 -13 9.5t-28 30t-35.5 50t-28 70t-12.5 91.5v336q0 51 -22.5 77t-60.5 26h-109v211h188q109 0 175.5 -77.5t66.5 -197.5v-366q0 -67 45.5 -110.5t114.5 -43.5v-213 q-69 0 -114.5 -44t-45.5 -110v-368q0 -120 -66.5 -197.5t-175.5 -77.5h-188v211z" />
<glyph unicode="~" horiz-adv-x="1218" d="M123 393v213q138 117 268 117q50 0 115 -21.5t117 -48t114 -48t107 -21.5q100 0 252 123v-213q-141 -117 -262 -117q-48 0 -113 21.5t-118.5 48t-116 48t-107.5 21.5q-62 0 -118.5 -30t-137.5 -93z" />
<glyph unicode="&#xa1;" horiz-adv-x="636" d="M184 713v266h269v-266h-269zM193 307l20 254h213l20 -254v-803h-253v803z" />
<glyph unicode="&#xa2;" d="M141 492q0 191 113 325.5t291 167.5v189h190v-185q52 -6 103 -19t76 -22l24 -10v-233q-10 6 -27.5 16t-70.5 29.5t-105 25.5v-571q55 7 108.5 28.5t80.5 39.5l26 18v-240q-84 -47 -215 -61v-209h-190v213q-177 34 -290.5 170.5t-113.5 327.5zM373 492q0 -92 46 -168 t126 -109v549q-78 -32 -125 -106.5t-47 -165.5z" />
<glyph unicode="&#xa3;" d="M102 0v231q75 0 119.5 34t44.5 106v221h-164v227h164v221q0 122 58 209t150.5 127.5t207.5 40.5q84 0 166 -16.5t122 -32.5l40 -16v-236q-18 8 -50 20.5t-117.5 33t-156.5 20.5q-74 0 -126 -39t-52 -111v-221h295v-227h-295v-213q0 -44 -14 -81t-28 -52l-13 -15h602v-231 h-953z" />
<glyph unicode="&#xa4;" d="M82 188l117 117q-49 90 -49 197q0 103 49 196l-113 113l166 166l115 -115q94 51 192 51q104 0 195 -51l116 115l168 -168l-114 -115q47 -89 47 -192q0 -96 -47 -195l118 -119l-168 -165l-118 118q-94 -51 -199 -51q-103 0 -192 47l-117 -114zM358 502q0 -82 57.5 -139.5 t143.5 -57.5q84 0 142.5 57.5t58.5 139.5q0 81 -58.5 137.5t-142.5 56.5q-85 0 -143 -56t-58 -138z" />
<glyph unicode="&#xa5;" d="M23 1397h266l274 -584l273 584h266l-324 -639h199v-207h-293v-111h293v-207h-293v-233h-242v233h-292v207h292v111h-292v207h198z" />
<glyph unicode="&#xa6;" horiz-adv-x="595" d="M184 342h228v-752h-228v752zM184 645v750h228v-750h-228z" />
<glyph unicode="&#xa7;" horiz-adv-x="1165" d="M123 541q0 45 15 90t37 77t43.5 57t36.5 37l15 13q-5 3 -13.5 9t-30 29t-38 49.5t-30 71t-13.5 93.5q0 150 136 250t335 100q93 0 184 -21t136 -42l45 -21v-243q-7 4 -19.5 10t-52 22.5t-79.5 29t-96.5 22.5t-108.5 10q-102 0 -164 -33t-62 -96q0 -34 27.5 -62.5 t73 -47.5t103 -40.5t118 -41.5t118 -51.5t103 -68.5t73 -94t27.5 -127q0 -45 -15 -90.5t-36 -77.5t-42.5 -57.5t-36.5 -38.5l-15 -12q5 -3 13.5 -10t29.5 -30.5t37 -50.5t29.5 -70.5t13.5 -90.5q0 -150 -135.5 -251t-333.5 -101q-93 0 -184.5 21t-136.5 42l-46 21v241 q19 -10 53 -25.5t128.5 -41t177.5 -25.5q102 0 162.5 33.5t60.5 97.5q0 39 -35.5 69t-92 52t-125 44.5t-137.5 53t-125.5 69.5t-92 102.5t-35.5 144.5zM367 571q0 -28 17.5 -54t46 -48t78 -46t99 -44t123.5 -47q34 32 52 73.5t18 77.5q0 82 -134 150q-63 32 -235 94 q-65 -72 -65 -156z" />
<glyph unicode="&#xa8;" horiz-adv-x="645" d="M0 1149v237h240v-237h-240zM406 1149v237h239v-237h-239z" />
<glyph unicode="&#xa9;" horiz-adv-x="1689" d="M123 698q0 147 58 281t155 230.5t230 154t278 57.5q146 0 279.5 -57.5t230.5 -154t155 -230.5t58 -281q0 -145 -57.5 -279t-154.5 -231t-231 -155t-280 -58q-145 0 -278.5 58t-230.5 155t-154.5 231t-57.5 279zM299 698q0 -147 73.5 -272t199 -197.5t272.5 -72.5 q146 0 272 73t200.5 198t74.5 271q0 147 -74.5 272.5t-200.5 199t-272 73.5q-147 0 -272.5 -73t-199 -198.5t-73.5 -273.5zM461 698q0 176 115.5 296t289.5 120q56 0 107 -13t73 -25l23 -13l-2 -197q-11 8 -30.5 20.5t-73 33t-97.5 20.5q-96 0 -158.5 -70t-62.5 -172 q0 -103 60 -173t159 -70q47 0 100.5 17.5t83.5 35.5l29 18v-186q-7 -7 -22 -16.5t-72.5 -26t-128.5 -16.5q-170 0 -281.5 120t-111.5 297z" />
<glyph unicode="&#xaa;" horiz-adv-x="737" d="M61 1087q0 135 84.5 227.5t206.5 92.5q27 0 52 -5.5t41 -13.5t29 -16.5t18 -13.5l6 -6l4 45h174v-619h-172l-6 45q-6 -6 -18 -15t-52 -24.5t-84 -15.5q-118 0 -200.5 92.5t-82.5 226.5zM121 492v170h555v-170h-555zM240 1087q0 -66 39 -112.5t98 -46.5q32 0 60 14t40 28 l12 13v211q-4 6 -13 14.5t-37.5 22.5t-59.5 14q-62 0 -100.5 -45.5t-38.5 -112.5z" />
<glyph unicode="&#xab;" horiz-adv-x="1179" d="M82 481l289 439h250l-283 -439l283 -438h-250zM559 481l289 439h250l-283 -439l283 -438h-250z" />
<glyph unicode="&#xac;" d="M121 637v219h883v-512h-224v293h-659z" />
<glyph unicode="&#xad;" horiz-adv-x="778" d="M123 436v223h532v-223h-532z" />
<glyph unicode="&#xae;" horiz-adv-x="1689" d="M123 698q0 147 58 281t155 230.5t230 154t278 57.5q146 0 279.5 -57.5t230.5 -154t155 -230.5t58 -281q0 -145 -57.5 -279t-154.5 -231t-231 -155t-280 -58q-145 0 -278.5 58t-230.5 155t-154.5 231t-57.5 279zM299 698q0 -147 73.5 -272t199 -197.5t272.5 -72.5 q146 0 272 73t200.5 198t74.5 271q0 147 -74.5 272.5t-200.5 199t-272 73.5q-147 0 -272.5 -73t-199 -198.5t-73.5 -273.5zM578 311v783h247q150 0 230 -66t80 -188q0 -157 -142 -219l181 -310h-218l-147 279h-41v-279h-190zM766 754h78q40 0 69 23.5t29 58.5 q0 37 -26.5 59.5t-84.5 22.5h-65v-164z" />
<glyph unicode="&#xaf;" horiz-adv-x="481" d="M0 1155v211h481v-211h-481z" />
<glyph unicode="&#xb0;" horiz-adv-x="780" d="M82 1186q0 128 90 217.5t217 89.5q129 0 219 -89.5t90 -217.5q0 -129 -90 -218t-219 -89t-218 89t-89 218zM264 1186q0 -52 37 -89.5t88 -37.5q53 0 90 37.5t37 89.5q0 51 -37.5 88t-89.5 37q-51 0 -88 -37t-37 -88z" />
<glyph unicode="&#xb1;" d="M123 51v221h881v-221h-881zM123 657v222h330v290h221v-290h330v-222h-330v-284h-221v284h-330z" />
<glyph unicode="&#xb2;" horiz-adv-x="737" d="M82 924q43 61 110.5 153t101 139.5t71.5 107t53.5 100.5t15.5 75q0 46 -24.5 72t-63.5 26q-40 0 -96 -23.5t-92 -47.5l-35 -23v199q13 9 36.5 22t89 34.5t122.5 21.5q116 0 188 -71.5t72 -190.5q0 -85 -45.5 -169.5t-161.5 -242.5h231v-182h-573z" />
<glyph unicode="&#xb3;" horiz-adv-x="669" d="M61 979v197q13 -9 35.5 -23t81.5 -37.5t105 -23.5t77 25.5t31 64.5q0 45 -42 69.5t-124 24.5v156q74 0 112 24.5t38 67.5q0 32 -25 52.5t-63 20.5q-46 0 -97 -15.5t-78 -31.5l-28 -16v182q12 7 33.5 17t81.5 26.5t112 16.5q113 0 183.5 -67t70.5 -171q0 -40 -17.5 -82 t-35.5 -64l-18 -22q4 -2 10 -7t22.5 -22t29 -37t22.5 -53.5t10 -70.5q0 -116 -84 -191.5t-213 -75.5q-60 0 -117.5 16.5t-85.5 32.5z" />
<glyph unicode="&#xb4;" horiz-adv-x="497" d="M0 1237l383 229l115 -213l-428 -174z" />
<glyph unicode="&#xb5;" horiz-adv-x="1239" d="M154 -410v1389h243v-582q0 -98 55 -147t148 -49q49 0 91.5 15t68.5 36.5t45 43.5t27 37l8 15v631h245v-979h-229l-10 119q-4 -6 -12 -15t-34 -33t-54 -42.5t-69.5 -33.5t-82.5 -15q-40 0 -75 7.5t-56.5 19t-37 22.5t-21.5 19l-7 7v-465h-243z" />
<glyph unicode="&#xb6;" horiz-adv-x="1296" d="M61 1028q0 158 112.5 263.5t301.5 105.5h699v-226h-105v-1521h-203v1521h-149v-1521h-191v1007h-94q-154 0 -262.5 108.5t-108.5 262.5z" />
<glyph unicode="&#xb7;" horiz-adv-x="555" d="M143 475v266h269v-266h-269z" />
<glyph unicode="&#xb8;" horiz-adv-x="389" d="M0 -236q72 -28 111 -28q53 0 53 43q0 24 -29 43.5t-57 27.5l-29 7l49 143h191l-25 -74q21 -6 39.5 -16t39.5 -28t33.5 -47t12.5 -66q0 -90 -75 -144.5t-167 -54.5q-36 0 -72.5 7t-55.5 15l-19 7v165z" />
<glyph unicode="&#xb9;" horiz-adv-x="509" d="M41 1464v191l192 106h154v-837h-188v620z" />
<glyph unicode="&#xba;" horiz-adv-x="757" d="M61 1096q0 135 91.5 229t224.5 94q134 0 226.5 -94.5t92.5 -228.5q0 -136 -91 -231t-228 -95q-133 0 -224.5 95t-91.5 231zM100 492v170h555v-170h-555zM236 1096q0 -68 39 -113t102 -45q67 0 105 44.5t38 113.5q0 68 -39 111.5t-104 43.5q-61 0 -101 -43.5t-40 -111.5z " />
<glyph unicode="&#xbb;" horiz-adv-x="1179" d="M82 43l283 438l-283 439h250l289 -439l-289 -438h-250zM559 43l283 438l-283 439h250l289 -439l-289 -438h-250z" />
<glyph unicode="&#xbc;" horiz-adv-x="1640" d="M102 1098v190l193 107h154v-838h-189v621zM276 -20l795 1439h195l-793 -1439h-197zM872 178l316 660h211l-236 -486h111l12 123h174v-123h78v-174h-78v-178h-186v178h-402z" />
<glyph unicode="&#xbd;" horiz-adv-x="1660" d="M102 1098v190l193 107h154v-838h-189v621zM276 -20l795 1439h195l-793 -1439h-197zM985 0q43 61 110.5 153t101 139.5t71.5 107t53.5 100.5t15.5 75q0 46 -24.5 72.5t-63.5 26.5q-40 0 -95.5 -23.5t-91.5 -46.5l-36 -24v198q13 9 36.5 22t89 34.5t122.5 21.5 q116 0 188 -71.5t72 -190.5q0 -85 -45.5 -169.5t-161.5 -242.5h232v-182h-574z" />
<glyph unicode="&#xbe;" horiz-adv-x="1771" d="M102 612v197q13 -9 35.5 -23t81.5 -37.5t105 -23.5t77 25.5t31 64.5q0 45 -42 69.5t-124 24.5v156q74 0 112 24.5t38 67.5q0 32 -25 53t-63 21q-46 0 -97 -16t-79 -32l-27 -16v183q12 7 33.5 16.5t81.5 26t112 16.5q113 0 183.5 -67t70.5 -171q0 -40 -18 -81.5t-36 -63.5 l-17 -22q4 -2 10 -7t22.5 -22t29 -37t22.5 -54t10 -71q0 -116 -84 -191t-213 -75q-60 0 -117.5 16.5t-84.5 32.5zM408 -20l794 1439h195l-793 -1439h-196zM1004 178l315 660h211l-236 -486h111l12 123h174v-123h78v-174h-78v-178h-186v178h-401z" />
<glyph unicode="&#xbf;" horiz-adv-x="866" d="M61 -168q0 86 29 161t72 128t87 97.5t80.5 88.5t45.5 82q4 20 7 63.5t4 77.5l1 33h234q6 -131 6 -184q0 -49 -22.5 -98t-56 -87t-73 -80t-73 -78t-56 -80.5t-22.5 -86.5q0 -63 37 -105.5t128 -42.5q56 0 129.5 23.5t119.5 47.5l46 24v-246q-19 -9 -51 -23t-117.5 -37.5 t-154.5 -23.5q-192 0 -296 100t-104 246zM369 713v266h268v-266h-268z" />
<glyph unicode="&#xc0;" horiz-adv-x="1310" d="M31 0l624 1483l625 -1483h-270l-109 283h-491l-109 -283h-270zM406 1671l114 213l383 -229l-69 -158zM492 504h327l-164 420z" />
<glyph unicode="&#xc1;" horiz-adv-x="1310" d="M31 0l624 1483l625 -1483h-270l-109 283h-491l-109 -283h-270zM406 1655l382 229l115 -213l-428 -174zM492 504h327l-164 420z" />
<glyph unicode="&#xc2;" horiz-adv-x="1310" d="M31 0l624 1483l625 -1483h-270l-109 283h-491l-109 -283h-270zM350 1640l303 224l305 -224l-71 -129l-234 121l-231 -121zM492 504h327l-164 420z" />
<glyph unicode="&#xc3;" horiz-adv-x="1310" d="M31 0l624 1483l625 -1483h-270l-109 283h-491l-109 -283h-270zM367 1606q0 77 51 141.5t131 64.5q34 0 64 -9.5t47 -21t38.5 -21t40.5 -9.5q21 0 40.5 16.5t28.5 32.5l9 17l127 -58q0 -77 -51 -142t-131 -65q-45 0 -80.5 15.5t-62 31t-48.5 15.5q-21 0 -40 -16.5 t-28 -33.5l-9 -16zM492 504h327l-164 420z" />
<glyph unicode="&#xc4;" horiz-adv-x="1310" d="M31 0l624 1483l625 -1483h-270l-109 283h-491l-109 -283h-270zM332 1567v237h239v-237h-239zM492 504h327l-164 420zM737 1567v237h240v-237h-240z" />
<glyph unicode="&#xc5;" horiz-adv-x="1310" d="M31 0l614 1460q-98 3 -165.5 71.5t-67.5 166.5q0 101 70.5 169t172.5 68q101 0 172.5 -68.5t71.5 -168.5q0 -98 -68.5 -166.5t-166.5 -71.5l616 -1460h-270l-109 283h-491l-109 -283h-270zM492 504h327l-164 420zM563 1698q0 -39 26.5 -64.5t65.5 -25.5q37 0 63.5 25.5 t26.5 64.5q0 38 -26.5 65t-63.5 27q-38 0 -65 -27t-27 -65z" />
<glyph unicode="&#xc6;" horiz-adv-x="1996" d="M20 0l1004 1397h887v-236h-647v-338h557v-235h-557v-355h661v-233h-905v281h-508l-197 -281h-295zM676 508h344v493z" />
<glyph unicode="&#xc7;" horiz-adv-x="1226" d="M82 700q0 147 56 280t150.5 228.5t224.5 152t273 56.5q62 0 120.5 -7t97 -16.5t68 -19.5t42.5 -17l14 -7v-258q-5 4 -15.5 10.5t-44.5 23t-71.5 29t-94.5 23t-116 10.5q-91 0 -175 -38.5t-145.5 -103.5t-98.5 -156t-37 -192q0 -135 62 -247.5t165 -176t223 -63.5 q67 0 130 14t105.5 33.5t75.5 39.5t49 34l15 14v-276q-11 -7 -32 -18.5t-93 -34.5t-153 -31l-19 -60q21 -6 39.5 -16t39.5 -28t33.5 -47t12.5 -66q0 -90 -75 -144.5t-167 -54.5q-36 0 -72.5 7t-55.5 15l-19 7v165q72 -28 111 -28q53 0 53 43q0 24 -29 43.5t-57 27.5l-29 7 l45 131q-262 34 -434 234.5t-172 477.5z" />
<glyph unicode="&#xc8;" horiz-adv-x="1191" d="M174 0v1397h932v-236h-686v-338h577v-235h-577v-355h700v-233h-946zM418 1671l114 213l383 -229l-69 -158z" />
<glyph unicode="&#xc9;" horiz-adv-x="1191" d="M174 0v1397h932v-236h-686v-338h577v-235h-577v-355h700v-233h-946zM418 1655l383 229l114 -213l-428 -174z" />
<glyph unicode="&#xca;" horiz-adv-x="1191" d="M174 0v1397h932v-236h-686v-338h577v-235h-577v-355h700v-233h-946zM362 1640l304 224l305 -224l-72 -129l-233 121l-232 -121z" />
<glyph unicode="&#xcb;" horiz-adv-x="1191" d="M174 0v1397h932v-236h-686v-338h577v-235h-577v-355h700v-233h-946zM344 1567v237h240v-237h-240zM750 1567v237h239v-237h-239z" />
<glyph unicode="&#xcc;" horiz-adv-x="598" d="M49 1671l115 213l383 -229l-70 -158zM174 0v1397h250v-1397h-250z" />
<glyph unicode="&#xcd;" horiz-adv-x="598" d="M49 1655l383 229l115 -213l-428 -174zM174 0v1397h250v-1397h-250z" />
<glyph unicode="&#xce;" horiz-adv-x="598" d="M-4 1640l303 224l305 -224l-72 -129l-233 121l-231 -121zM174 0v1397h250v-1397h-250z" />
<glyph unicode="&#xcf;" horiz-adv-x="598" d="M-23 1567v237h240v-237h-240zM174 0v1397h250v-1397h-250zM383 1567v237h240v-237h-240z" />
<glyph unicode="&#xd0;" horiz-adv-x="1413" d="M72 590v233h125v574h399q173 0 312.5 -52t231.5 -144.5t141.5 -221t49.5 -281.5q0 -151 -49.5 -279t-141.5 -221t-232 -145.5t-312 -52.5h-399v590h-125zM446 227h158q225 0 352 131.5t127 339.5q0 210 -126.5 340.5t-352.5 130.5h-158v-346h273v-233h-273v-363z" />
<glyph unicode="&#xd1;" horiz-adv-x="1464" d="M174 0v1475l870 -938v860h246v-1475l-870 938v-860h-246zM442 1606q0 77 51.5 141.5t131.5 64.5q34 0 64 -9.5t47 -21t38.5 -21t40.5 -9.5q21 0 40.5 16.5t28.5 32.5l9 17l127 -58q0 -77 -51 -142t-131 -65q-45 0 -80.5 15.5t-62 31t-48.5 15.5q-21 0 -40.5 -16.5 t-28.5 -33.5l-9 -16z" />
<glyph unicode="&#xd2;" horiz-adv-x="1615" d="M82 700q0 146 57.5 279t155 229t231.5 152.5t281 56.5q198 0 365.5 -96t264.5 -261t97 -360q0 -146 -57.5 -279.5t-154.5 -230t-232 -153.5t-283 -57q-196 0 -363 96.5t-264.5 262.5t-97.5 361zM326 700q0 -131 64.5 -244t175.5 -180t241 -67t242 67t176.5 180t64.5 244 q0 98 -38.5 188t-103 156t-154 105t-187.5 39q-97 0 -186 -39t-153.5 -105t-103 -156t-38.5 -188zM559 1671l115 213l383 -229l-70 -158z" />
<glyph unicode="&#xd3;" horiz-adv-x="1615" d="M82 700q0 146 57.5 279t155 229t231.5 152.5t281 56.5q198 0 365.5 -96t264.5 -261t97 -360q0 -146 -57.5 -279.5t-154.5 -230t-232 -153.5t-283 -57q-196 0 -363 96.5t-264.5 262.5t-97.5 361zM326 700q0 -131 64.5 -244t175.5 -180t241 -67t242 67t176.5 180t64.5 244 q0 98 -38.5 188t-103 156t-154 105t-187.5 39q-97 0 -186 -39t-153.5 -105t-103 -156t-38.5 -188zM559 1655l383 229l115 -213l-428 -174z" />
<glyph unicode="&#xd4;" horiz-adv-x="1615" d="M82 700q0 146 57.5 279t155 229t231.5 152.5t281 56.5q198 0 365.5 -96t264.5 -261t97 -360q0 -146 -57.5 -279.5t-154.5 -230t-232 -153.5t-283 -57q-196 0 -363 96.5t-264.5 262.5t-97.5 361zM326 700q0 -131 64.5 -244t175.5 -180t241 -67t242 67t176.5 180t64.5 244 q0 98 -38.5 188t-103 156t-154 105t-187.5 39q-97 0 -186 -39t-153.5 -105t-103 -156t-38.5 -188zM504 1640l303 224l305 -224l-72 -129l-233 121l-232 -121z" />
<glyph unicode="&#xd5;" horiz-adv-x="1615" d="M82 700q0 146 57.5 279t155 229t231.5 152.5t281 56.5q198 0 365.5 -96t264.5 -261t97 -360q0 -146 -57.5 -279.5t-154.5 -230t-232 -153.5t-283 -57q-196 0 -363 96.5t-264.5 262.5t-97.5 361zM326 700q0 -131 64.5 -244t175.5 -180t241 -67t242 67t176.5 180t64.5 244 q0 98 -38.5 188t-103 156t-154 105t-187.5 39q-97 0 -186 -39t-153.5 -105t-103 -156t-38.5 -188zM518 1606q0 77 51 141.5t131 64.5q44 0 79 -15t62 -30.5t50 -15.5q21 0 40.5 16.5t28.5 32.5l9 17l127 -58q0 -77 -51.5 -142t-131.5 -65q-45 0 -80 15.5t-61.5 31 t-48.5 15.5q-21 0 -40.5 -16.5t-28.5 -33.5l-9 -16z" />
<glyph unicode="&#xd6;" horiz-adv-x="1615" d="M82 700q0 146 57.5 279t155 229t231.5 152.5t281 56.5q198 0 365.5 -96t264.5 -261t97 -360q0 -146 -57.5 -279.5t-154.5 -230t-232 -153.5t-283 -57q-196 0 -363 96.5t-264.5 262.5t-97.5 361zM326 700q0 -131 64.5 -244t175.5 -180t241 -67t242 67t176.5 180t64.5 244 q0 98 -38.5 188t-103 156t-154 105t-187.5 39q-97 0 -186 -39t-153.5 -105t-103 -156t-38.5 -188zM485 1567v237h240v-237h-240zM891 1567v237h239v-237h-239z" />
<glyph unicode="&#xd7;" d="M139 403l264 263l-264 266l158 155l266 -262l266 269l158 -160l-268 -268l264 -265l-156 -157l-264 264l-266 -262z" />
<glyph unicode="&#xd8;" horiz-adv-x="1615" d="M82 700q0 146 57.5 279t155 229t231.5 152.5t281 56.5q192 0 367 -98l118 151l156 -116l-121 -152q98 -98 152.5 -228t54.5 -274q0 -146 -57.5 -279.5t-154.5 -230t-232 -153.5t-283 -57q-200 0 -365 98l-120 -154l-152 119l121 152q-99 100 -154 230t-55 275zM326 700 q0 -179 114 -315l586 748q-104 55 -219 55q-97 0 -186 -39t-153.5 -105t-103 -156t-38.5 -188zM588 264q104 -55 219 -55q130 0 242 67t176.5 180t64.5 244q0 174 -112 312z" />
<glyph unicode="&#xd9;" horiz-adv-x="1443" d="M154 573v824h245v-840q0 -149 90.5 -247.5t233.5 -98.5q140 0 230.5 98.5t90.5 247.5v840h246v-824q0 -121 -33 -221.5t-88 -168t-129 -114.5t-153.5 -68t-163.5 -21q-87 0 -168 21.5t-154.5 68t-128 114.5t-86.5 168t-32 221zM473 1671l115 213l383 -229l-70 -158z" />
<glyph unicode="&#xda;" horiz-adv-x="1443" d="M154 573v824h245v-840q0 -149 90.5 -247.5t233.5 -98.5q140 0 230.5 98.5t90.5 247.5v840h246v-824q0 -121 -33 -221.5t-88 -168t-129 -114.5t-153.5 -68t-163.5 -21q-87 0 -168 21.5t-154.5 68t-128 114.5t-86.5 168t-32 221zM473 1655l383 229l115 -213l-428 -174z" />
<glyph unicode="&#xdb;" horiz-adv-x="1443" d="M154 573v824h245v-840q0 -149 90.5 -247.5t233.5 -98.5q140 0 230.5 98.5t90.5 247.5v840h246v-824q0 -121 -33 -221.5t-88 -168t-129 -114.5t-153.5 -68t-163.5 -21q-87 0 -168 21.5t-154.5 68t-128 114.5t-86.5 168t-32 221zM418 1640l303 224l305 -224l-72 -129 l-233 121l-232 -121z" />
<glyph unicode="&#xdc;" horiz-adv-x="1443" d="M154 573v824h245v-840q0 -149 90.5 -247.5t233.5 -98.5q140 0 230.5 98.5t90.5 247.5v840h246v-824q0 -121 -33 -221.5t-88 -168t-129 -114.5t-153.5 -68t-163.5 -21q-87 0 -168 21.5t-154.5 68t-128 114.5t-86.5 168t-32 221zM399 1567v237h240v-237h-240zM805 1567v237 h239v-237h-239z" />
<glyph unicode="&#xdd;" horiz-adv-x="1253" d="M20 1397h273l334 -617l334 617h272l-483 -838v-559h-246v559zM377 1655l383 229l114 -213l-428 -174z" />
<glyph unicode="&#xde;" horiz-adv-x="1216" d="M174 0v1397h248v-189h270q108 0 197 -35t146.5 -95t88.5 -139t31 -169q0 -188 -125 -315t-338 -127h-272v-328h-246zM420 559h270q102 0 162.5 56.5t60.5 152.5q0 95 -60.5 153t-162.5 58h-270v-420z" />
<glyph unicode="&#xdf;" horiz-adv-x="1187" d="M51 758v221h113v123q0 55 13.5 108.5t45.5 105t79.5 90.5t120.5 63t163 24q106 0 197 -42t147.5 -122.5t56.5 -183.5q0 -63 -21 -115.5t-51 -86t-60.5 -61t-51.5 -52t-21 -46.5q0 -25 27 -53t67.5 -54t88 -64t88 -78.5t67.5 -102.5t27 -133q0 -62 -24.5 -117.5 t-72 -101.5t-128 -73t-183.5 -27q-59 0 -113 9t-78 18l-24 9v222q10 -5 28 -12.5t74.5 -20t112.5 -12.5q70 0 117 29t47 77q0 26 -20 52t-51.5 50t-70 50t-77 58.5t-70 70t-51.5 90t-20 112.5q0 57 22 103.5t53.5 77t62.5 57.5t53 59.5t22 69.5q0 58 -49.5 96.5t-120.5 38.5 q-88 0 -133 -55t-45 -137v-1092h-244v758h-113z" />
<glyph unicode="&#xe0;" horiz-adv-x="1236" d="M82 489q0 108 40 204t106.5 162.5t154 105t180.5 38.5q55 0 103.5 -12t79.5 -29t53.5 -34t32.5 -29l10 -12l10 96h231v-979h-231l-10 96q-4 -5 -11 -12.5t-33 -27.5t-55.5 -35.5t-78 -28t-101.5 -12.5q-94 0 -181.5 39t-153.5 105.5t-106 162t-40 202.5zM315 489 q0 -119 80 -204.5t199 -85.5q48 0 91 13t70 31.5t47.5 36.5t29.5 31l8 13v333q-3 5 -9 13t-28 29t-48 37t-69.5 29t-91.5 13q-120 0 -199.5 -84.5t-79.5 -204.5zM369 1253l114 213l383 -229l-69 -158z" />
<glyph unicode="&#xe1;" horiz-adv-x="1236" d="M82 489q0 108 40 204t106.5 162.5t154 105t180.5 38.5q55 0 103.5 -12t79.5 -29t53.5 -34t32.5 -29l10 -12l10 96h231v-979h-231l-10 96q-4 -5 -11 -12.5t-33 -27.5t-55.5 -35.5t-78 -28t-101.5 -12.5q-94 0 -181.5 39t-153.5 105.5t-106 162t-40 202.5zM315 489 q0 -119 80 -204.5t199 -85.5q48 0 91 13t70 31.5t47.5 36.5t29.5 31l8 13v333q-3 5 -9 13t-28 29t-48 37t-69.5 29t-91.5 13q-120 0 -199.5 -84.5t-79.5 -204.5zM369 1237l383 229l114 -213l-428 -174z" />
<glyph unicode="&#xe2;" horiz-adv-x="1236" d="M82 489q0 108 40 204t106.5 162.5t154 105t180.5 38.5q55 0 103.5 -12t79.5 -29t53.5 -34t32.5 -29l10 -12l10 96h231v-979h-231l-10 96q-4 -5 -11 -12.5t-33 -27.5t-55.5 -35.5t-78 -28t-101.5 -12.5q-94 0 -181.5 39t-153.5 105.5t-106 162t-40 202.5zM313 1223 l303 223l306 -223l-72 -129l-234 120l-231 -120zM315 489q0 -119 80 -204.5t199 -85.5q48 0 91 13t70 31.5t47.5 36.5t29.5 31l8 13v333q-3 5 -9 13t-28 29t-48 37t-69.5 29t-91.5 13q-120 0 -199.5 -84.5t-79.5 -204.5z" />
<glyph unicode="&#xe3;" horiz-adv-x="1236" d="M82 489q0 108 40 204t106.5 162.5t154 105t180.5 38.5q55 0 103.5 -12t79.5 -29t53.5 -34t32.5 -29l10 -12l10 96h231v-979h-231l-10 96q-4 -5 -11 -12.5t-33 -27.5t-55.5 -35.5t-78 -28t-101.5 -12.5q-94 0 -181.5 39t-153.5 105.5t-106 162t-40 202.5zM315 489 q0 -119 80 -204.5t199 -85.5q48 0 91 13t70 31.5t47.5 36.5t29.5 31l8 13v333q-3 5 -9 13t-28 29t-48 37t-69.5 29t-91.5 13q-120 0 -199.5 -84.5t-79.5 -204.5zM330 1188q0 77 51 142t131 65q44 0 79 -15.5t61.5 -31t49.5 -15.5q21 0 40.5 16.5t28.5 32.5l9 17l127 -58 q0 -77 -51 -141.5t-131 -64.5q-45 0 -80 15.5t-61.5 30.5t-48.5 15q-21 0 -40.5 -16.5t-28.5 -33.5l-9 -16z" />
<glyph unicode="&#xe4;" horiz-adv-x="1236" d="M82 489q0 108 40 204t106.5 162.5t154 105t180.5 38.5q55 0 103.5 -12t79.5 -29t53.5 -34t32.5 -29l10 -12l10 96h231v-979h-231l-10 96q-4 -5 -11 -12.5t-33 -27.5t-55.5 -35.5t-78 -28t-101.5 -12.5q-94 0 -181.5 39t-153.5 105.5t-106 162t-40 202.5zM295 1149v237 h240v-237h-240zM315 489q0 -119 80 -204.5t199 -85.5q48 0 91 13t70 31.5t47.5 36.5t29.5 31l8 13v333q-3 5 -9 13t-28 29t-48 37t-69.5 29t-91.5 13q-120 0 -199.5 -84.5t-79.5 -204.5zM700 1149v237h240v-237h-240z" />
<glyph unicode="&#xe5;" horiz-adv-x="1236" d="M82 489q0 108 40 204t106.5 162.5t154 105t180.5 38.5q55 0 103.5 -12t79.5 -29t53.5 -34t32.5 -29l10 -12l10 96h231v-979h-231l-10 96q-4 -5 -11 -12.5t-33 -27.5t-55.5 -35.5t-78 -28t-101.5 -12.5q-94 0 -181.5 39t-153.5 105.5t-106 162t-40 202.5zM315 489 q0 -119 80 -204.5t199 -85.5q48 0 91 13t70 31.5t47.5 36.5t29.5 31l8 13v333q-3 5 -9 13t-28 29t-48 37t-69.5 29t-91.5 13q-120 0 -199.5 -84.5t-79.5 -204.5zM367 1280q0 101 70.5 169.5t172.5 68.5q101 0 172.5 -69t71.5 -169q0 -99 -72 -168.5t-172 -69.5 q-101 0 -172 69t-71 169zM518 1280q0 -39 26.5 -64.5t65.5 -25.5q37 0 63.5 25.5t26.5 64.5q0 38 -26.5 65t-63.5 27q-38 0 -65 -27t-27 -65z" />
<glyph unicode="&#xe6;" horiz-adv-x="1900" d="M82 489q0 108 40 204t106.5 162.5t154 105t180.5 38.5q55 0 104.5 -12t81.5 -29t56 -34t35 -29l10 -12l10 96h219l4 -96q4 5 12 12.5t35 27.5t57 35.5t78.5 28t100.5 12.5q88 0 165 -29t130.5 -77t92 -109.5t57 -127t18.5 -128.5q0 -35 -3 -67t-6 -47l-3 -15h-725 q18 -84 100 -146.5t194 -62.5q90 0 178.5 26t131.5 52l43 25v-230q-17 -9 -47.5 -23t-124.5 -37t-187 -23q-58 0 -110 12t-84.5 29t-57 34t-34.5 29l-11 12l-6 -96h-217l-10 96q-4 -5 -12 -12.5t-35 -27.5t-58 -35.5t-80 -28t-102 -12.5q-129 0 -239 65.5t-176 183 t-66 260.5zM315 489q0 -119 80 -205.5t199 -86.5q48 0 92 13t72 31.5t49.5 37.5t30.5 32l10 13v333q-3 5 -9.5 13t-30 29t-50.5 37t-71.5 29t-92.5 13q-120 0 -199.5 -84.5t-79.5 -204.5zM1096 573h510q-8 86 -77.5 154t-172.5 68q-95 0 -169.5 -67t-90.5 -155z" />
<glyph unicode="&#xe7;" horiz-adv-x="954" d="M82 492q0 214 145 360.5t357 146.5q70 0 139 -15.5t103 -30.5l34 -15v-250q-4 4 -12 10t-35 22t-55.5 28t-73.5 22t-90 10q-119 0 -200 -85t-81 -203q0 -119 80 -206t201 -87q47 0 93 10t78 24.5t57 29t38 24.5l12 10v-246q-8 -5 -23.5 -14t-68 -26.5t-108.5 -24.5 l-19 -60q21 -6 39.5 -16t39.5 -28t33.5 -47t12.5 -66q0 -90 -74.5 -144.5t-166.5 -54.5q-36 0 -73 7t-56 15l-19 7v165q72 -28 111 -28q53 0 53 43q0 24 -28.5 43.5t-57.5 27.5l-29 7l45 133q-175 34 -288 174.5t-113 327.5z" />
<glyph unicode="&#xe8;" horiz-adv-x="1132" d="M82 492q0 140 70 257t188 183.5t256 66.5q88 0 165 -29t131 -77t93 -109.5t57.5 -127t18.5 -128.5q0 -35 -3 -67t-6 -47l-3 -15h-723q18 -85 97 -147t193 -62q56 0 113.5 10.5t99 25t75 29.5t50.5 25l17 11v-230q-18 -9 -49.5 -22.5t-128.5 -36t-193 -22.5 q-146 0 -265 68.5t-186 186t-67 257.5zM326 573h510q-8 86 -77.5 154t-172.5 68q-95 0 -169.5 -67t-90.5 -155zM340 1253l115 213l383 -229l-70 -158z" />
<glyph unicode="&#xe9;" horiz-adv-x="1132" d="M82 492q0 140 70 257t188 183.5t256 66.5q88 0 165 -29t131 -77t93 -109.5t57.5 -127t18.5 -128.5q0 -35 -3 -67t-6 -47l-3 -15h-723q18 -85 97 -147t193 -62q56 0 113.5 10.5t99 25t75 29.5t50.5 25l17 11v-230q-18 -9 -49.5 -22.5t-128.5 -36t-193 -22.5 q-146 0 -265 68.5t-186 186t-67 257.5zM326 573h510q-8 86 -77.5 154t-172.5 68q-95 0 -169.5 -67t-90.5 -155zM348 1237l383 229l115 -213l-428 -174z" />
<glyph unicode="&#xea;" horiz-adv-x="1132" d="M82 492q0 140 70 257t188 183.5t256 66.5q88 0 165 -29t131 -77t93 -109.5t57.5 -127t18.5 -128.5q0 -35 -3 -67t-6 -47l-3 -15h-723q18 -85 97 -147t193 -62q56 0 113.5 10.5t99 25t75 29.5t50.5 25l17 11v-230q-18 -9 -49.5 -22.5t-128.5 -36t-193 -22.5 q-146 0 -265 68.5t-186 186t-67 257.5zM283 1223l303 223l305 -223l-72 -129l-233 120l-232 -120zM326 573h510q-8 86 -77.5 154t-172.5 68q-95 0 -169.5 -67t-90.5 -155z" />
<glyph unicode="&#xeb;" horiz-adv-x="1132" d="M82 492q0 140 70 257t188 183.5t256 66.5q88 0 165 -29t131 -77t93 -109.5t57.5 -127t18.5 -128.5q0 -35 -3 -67t-6 -47l-3 -15h-723q18 -85 97 -147t193 -62q56 0 113.5 10.5t99 25t75 29.5t50.5 25l17 11v-230q-18 -9 -49.5 -22.5t-128.5 -36t-193 -22.5 q-146 0 -265 68.5t-186 186t-67 257.5zM266 1149v237h240v-237h-240zM326 573h510q-8 86 -77.5 154t-172.5 68q-95 0 -169.5 -67t-90.5 -155zM672 1149v237h239v-237h-239z" />
<glyph unicode="&#xec;" horiz-adv-x="585" d="M43 1253l115 213l383 -229l-70 -158zM168 0v979h250v-979h-250z" />
<glyph unicode="&#xed;" horiz-adv-x="585" d="M43 1237l383 229l115 -213l-428 -174zM168 0v979h250v-979h-250z" />
<glyph unicode="&#xee;" horiz-adv-x="585" d="M-10 1223l303 223l305 -223l-72 -129l-233 120l-232 -120zM168 0v979h250v-979h-250z" />
<glyph unicode="&#xef;" horiz-adv-x="585" d="M-29 1149v237h240v-237h-240zM168 0v979h250v-979h-250zM377 1149v237h239v-237h-239z" />
<glyph unicode="&#xf0;" horiz-adv-x="1163" d="M82 471q0 132 64 241.5t170.5 170.5t230.5 61q68 0 128 -20t87 -40l26 -20q-50 163 -145 242l-106 -107l-140 142l76 76q-100 38 -219 38l-8 232q224 0 403 -94l111 110l139 -139l-88 -88q114 -112 185 -292.5t71 -405.5q0 -127 -28.5 -229.5t-76.5 -170t-113.5 -113 t-136 -65.5t-147.5 -20q-202 0 -342.5 142.5t-140.5 348.5zM317 465q0 -106 70.5 -183t181.5 -77q113 0 186.5 87.5t73.5 233.5q0 24 -2 52t-4 44l-2 15q-4 4 -10.5 10t-30.5 22t-51 28t-70.5 22t-89.5 10q-106 0 -179 -78t-73 -186z" />
<glyph unicode="&#xf1;" horiz-adv-x="1208" d="M154 0v979h227l12 -115q4 5 12.5 14.5t37 32.5t60.5 41t83 32.5t104 14.5q178 0 286.5 -112.5t108.5 -294.5v-592h-243v582q0 94 -54 145t-143 51q-44 0 -86 -12t-70 -29t-50 -34t-32 -29l-10 -12v-662h-243zM340 1188q0 77 51 142t131 65q44 0 79 -15.5t62 -31t50 -15.5 q21 0 40.5 16.5t28.5 32.5l9 17l127 -58q0 -77 -51.5 -141.5t-131.5 -64.5q-45 0 -80 15.5t-61.5 30.5t-48.5 15q-21 0 -40.5 -16.5t-28.5 -33.5l-9 -16z" />
<glyph unicode="&#xf2;" horiz-adv-x="1210" d="M82 489q0 141 68.5 258t188.5 184.5t265 67.5q144 0 264.5 -67.5t190 -185t69.5 -257.5t-69 -257t-189.5 -184.5t-265.5 -67.5q-146 0 -266 67.5t-188 184t-68 257.5zM315 489q0 -122 78.5 -206t210.5 -84q126 0 208.5 85t82.5 205q0 121 -82 206t-209 85 q-126 0 -207.5 -85t-81.5 -206zM356 1253l115 213l383 -229l-70 -158z" />
<glyph unicode="&#xf3;" horiz-adv-x="1210" d="M82 489q0 141 68.5 258t188.5 184.5t265 67.5q144 0 264.5 -67.5t190 -185t69.5 -257.5t-69 -257t-189.5 -184.5t-265.5 -67.5q-146 0 -266 67.5t-188 184t-68 257.5zM315 489q0 -122 78.5 -206t210.5 -84q126 0 208.5 85t82.5 205q0 121 -82 206t-209 85 q-126 0 -207.5 -85t-81.5 -206zM352 1237l383 229l115 -213l-428 -174z" />
<glyph unicode="&#xf4;" horiz-adv-x="1210" d="M82 489q0 141 68.5 258t188.5 184.5t265 67.5q144 0 264.5 -67.5t190 -185t69.5 -257.5t-69 -257t-189.5 -184.5t-265.5 -67.5q-146 0 -266 67.5t-188 184t-68 257.5zM303 1223l303 223l305 -223l-71 -129l-234 120l-231 -120zM315 489q0 -122 78.5 -206t210.5 -84 q126 0 208.5 85t82.5 205q0 121 -82 206t-209 85q-126 0 -207.5 -85t-81.5 -206z" />
<glyph unicode="&#xf5;" horiz-adv-x="1210" d="M82 489q0 141 68.5 258t188.5 184.5t265 67.5q144 0 264.5 -67.5t190 -185t69.5 -257.5t-69 -257t-189.5 -184.5t-265.5 -67.5q-146 0 -266 67.5t-188 184t-68 257.5zM305 1188q0 77 51 142t131 65q44 0 79 -15.5t62 -31t50 -15.5q21 0 40.5 16.5t28.5 32.5l9 17l127 -58 q0 -77 -51.5 -141.5t-131.5 -64.5q-45 0 -80 15.5t-61.5 30.5t-48.5 15q-21 0 -40.5 -16.5t-28.5 -33.5l-9 -16zM315 489q0 -122 78.5 -206t210.5 -84q126 0 208.5 85t82.5 205q0 121 -82 206t-209 85q-126 0 -207.5 -85t-81.5 -206z" />
<glyph unicode="&#xf6;" horiz-adv-x="1210" d="M82 489q0 141 68.5 258t188.5 184.5t265 67.5q144 0 264.5 -67.5t190 -185t69.5 -257.5t-69 -257t-189.5 -184.5t-265.5 -67.5q-146 0 -266 67.5t-188 184t-68 257.5zM281 1149v237h239v-237h-239zM315 489q0 -122 78.5 -206t210.5 -84q126 0 208.5 85t82.5 205 q0 121 -82 206t-209 85q-126 0 -207.5 -85t-81.5 -206zM686 1149v237h240v-237h-240z" />
<glyph unicode="&#xf7;" d="M123 555v221h881v-221h-881zM434 193v260h260v-260h-260zM434 881v262h260v-262h-260z" />
<glyph unicode="&#xf8;" horiz-adv-x="1210" d="M82 489q0 141 68.5 258t188.5 184.5t265 67.5q138 0 258 -65l96 119l127 -103l-94 -114q65 -68 101 -158t36 -189q0 -140 -69 -257t-189.5 -184.5t-265.5 -67.5q-141 0 -258 63l-94 -117l-129 103l92 114q-133 143 -133 346zM315 489q0 -93 47 -167l355 436 q-55 22 -113 22q-126 0 -207.5 -85t-81.5 -206zM489 219q50 -20 115 -20q126 0 208.5 85t82.5 205q0 93 -51 166z" />
<glyph unicode="&#xf9;" horiz-adv-x="1208" d="M123 387v592h244v-582q0 -94 53.5 -145t142.5 -51q44 0 86 12t70 29t50 34t32 29l10 12v662h244v-979h-228l-12 113q-4 -5 -12.5 -14t-37 -32t-60.5 -40.5t-83 -32t-104 -14.5q-178 0 -286.5 112.5t-108.5 294.5zM354 1253l115 213l383 -229l-70 -158z" />
<glyph unicode="&#xfa;" horiz-adv-x="1208" d="M123 387v592h244v-582q0 -94 53.5 -145t142.5 -51q44 0 86 12t70 29t50 34t32 29l10 12v662h244v-979h-228l-12 113q-4 -5 -12.5 -14t-37 -32t-60.5 -40.5t-83 -32t-104 -14.5q-178 0 -286.5 112.5t-108.5 294.5zM354 1237l383 229l115 -213l-428 -174z" />
<glyph unicode="&#xfb;" horiz-adv-x="1208" d="M123 387v592h244v-582q0 -94 53.5 -145t142.5 -51q44 0 86 12t70 29t50 34t32 29l10 12v662h244v-979h-228l-12 113q-4 -5 -12.5 -14t-37 -32t-60.5 -40.5t-83 -32t-104 -14.5q-178 0 -286.5 112.5t-108.5 294.5zM299 1223l303 223l305 -223l-71 -129l-234 120l-231 -120 z" />
<glyph unicode="&#xfc;" horiz-adv-x="1208" d="M123 387v592h244v-582q0 -94 53.5 -145t142.5 -51q44 0 86 12t70 29t50 34t32 29l10 12v662h244v-979h-228l-12 113q-4 -5 -12.5 -14t-37 -32t-60.5 -40.5t-83 -32t-104 -14.5q-178 0 -286.5 112.5t-108.5 294.5zM281 1149v237h239v-237h-239zM686 1149v237h240v-237 h-240z" />
<glyph unicode="&#xfd;" horiz-adv-x="1105" d="M20 979h259l284 -651l277 651h245l-614 -1389h-244l211 473zM317 1237l383 229l115 -213l-428 -174z" />
<glyph unicode="&#xfe;" horiz-adv-x="1226" d="M154 -410v1885h241v-596q6 7 15 16.5t35 29.5t55.5 35t76 27t97.5 12q93 0 179.5 -39t150.5 -106t102.5 -162.5t38.5 -202.5q0 -108 -38.5 -203.5t-103 -162t-150.5 -105t-179 -38.5q-55 0 -103.5 12t-79 29.5t-53 35t-32.5 29.5l-9 12v-508h-243zM397 322q3 -5 9 -13 t28 -29t48 -37t69.5 -29t91.5 -13q119 0 193.5 83.5t74.5 204.5t-75 206t-193 85q-48 0 -91 -13t-70 -31t-47.5 -36.5t-28.5 -31.5l-9 -13v-333z" />
<glyph unicode="&#xff;" horiz-adv-x="1105" d="M20 979h259l284 -651l277 651h245l-614 -1389h-244l211 473zM242 1149v237h239v-237h-239zM647 1149v237h240v-237h-240z" />
<glyph unicode="&#x152;" horiz-adv-x="2095" d="M82 700q0 147 55.5 280t149 228.5t220 152t263.5 56.5q56 0 108.5 -7t87 -16.5t61 -19.5t38.5 -17l12 -7v47h932v-236h-686v-338h578v-235h-578v-355h700v-233h-946v55q-4 -3 -12.5 -8t-38 -17.5t-62.5 -22t-86 -17.5t-110 -8q-141 0 -268 56t-218.5 152t-145.5 229 t-54 281zM330 698q0 -135 62 -247.5t165 -176t223 -63.5q55 0 105.5 9.5t84 22.5t59 26t37.5 23l11 9v809q-4 3 -12 8.5t-35.5 19t-59 23.5t-81.5 18.5t-103 8.5q-91 0 -175 -38.5t-145.5 -103.5t-98.5 -156t-37 -192z" />
<glyph unicode="&#x153;" horiz-adv-x="1916" d="M82 489q0 140 68 257.5t186 185t258 67.5q118 0 221.5 -50t173.5 -138q67 87 171.5 137.5t223.5 50.5q109 0 199.5 -44t146 -114t85.5 -151.5t30 -161.5q0 -35 -4 -67t-8 -47l-4 -15h-715q18 -84 98.5 -146.5t192.5 -62.5q54 0 110 10t97 25t74.5 29.5t51.5 24.5l17 10 v-230q-17 -9 -49 -22t-127.5 -35t-189.5 -22q-125 0 -230 49.5t-170 136.5q-70 -87 -173 -136.5t-222 -49.5q-141 0 -259 67.5t-185.5 184.5t-67.5 257zM315 489q0 -119 80 -205.5t199 -86.5t199.5 86.5t80.5 205.5q0 121 -80 207t-200 86t-199.5 -86t-79.5 -207zM1114 573 h510q-8 86 -77.5 154t-172.5 68q-95 0 -169.5 -67t-90.5 -155z" />
<glyph unicode="&#x178;" horiz-adv-x="1253" d="M20 1397h273l334 -617l334 617h272l-483 -838v-559h-246v559zM303 1567v237h240v-237h-240zM709 1567v237h239v-237h-239z" />
<glyph unicode="&#x2c6;" horiz-adv-x="608" d="M0 1223l303 223l305 -223l-71 -129l-234 120l-231 -120z" />
<glyph unicode="&#x2dc;" horiz-adv-x="577" d="M0 1188q0 77 51 142t131 65q44 0 79 -15.5t62 -31t50 -15.5q21 0 40.5 16.5t28.5 32.5l9 17l127 -58q0 -77 -51.5 -141.5t-131.5 -64.5q-45 0 -80 15.5t-61.5 30.5t-48.5 15q-21 0 -40.5 -16.5t-28.5 -33.5l-9 -16z" />
<glyph unicode="&#x2000;" horiz-adv-x="967" />
<glyph unicode="&#x2001;" horiz-adv-x="1935" />
<glyph unicode="&#x2002;" horiz-adv-x="967" />
<glyph unicode="&#x2003;" horiz-adv-x="1935" />
<glyph unicode="&#x2004;" horiz-adv-x="645" />
<glyph unicode="&#x2005;" horiz-adv-x="483" />
<glyph unicode="&#x2006;" horiz-adv-x="322" />
<glyph unicode="&#x2007;" horiz-adv-x="322" />
<glyph unicode="&#x2008;" horiz-adv-x="241" />
<glyph unicode="&#x2009;" horiz-adv-x="387" />
<glyph unicode="&#x200a;" horiz-adv-x="107" />
<glyph unicode="&#x2010;" horiz-adv-x="778" d="M123 436v223h532v-223h-532z" />
<glyph unicode="&#x2011;" horiz-adv-x="778" d="M123 436v223h532v-223h-532z" />
<glyph unicode="&#x2012;" horiz-adv-x="778" d="M123 436v223h532v-223h-532z" />
<glyph unicode="&#x2013;" horiz-adv-x="970" d="M0 438v221h971v-221h-971z" />
<glyph unicode="&#x2014;" horiz-adv-x="1941" d="M0 438v221h1942v-221h-1942z" />
<glyph unicode="&#x2018;" horiz-adv-x="479" d="M82 969v276l197 305l108 -65l-117 -223v-27h80v-266h-268z" />
<glyph unicode="&#x2019;" horiz-adv-x="479" d="M92 958l117 224v26h-80v267h268v-277l-196 -305z" />
<glyph unicode="&#x201a;" horiz-adv-x="520" d="M82 -250l117 223v27h-80v266h268v-276l-197 -305z" />
<glyph unicode="&#x201c;" horiz-adv-x="890" d="M82 969v276l197 305l108 -65l-117 -223v-27h80v-266h-268zM494 969v276l196 305l109 -65l-117 -223v-27h80v-266h-268z" />
<glyph unicode="&#x201d;" horiz-adv-x="890" d="M92 958l117 224v26h-80v267h268v-277l-196 -305zM504 958l117 224v26h-80v267h268v-277l-197 -305z" />
<glyph unicode="&#x201e;" horiz-adv-x="931" d="M82 -250l117 223v27h-80v266h268v-276l-197 -305zM494 -250l116 223v27h-80v266h269v-276l-197 -305z" />
<glyph unicode="&#x2022;" horiz-adv-x="954" d="M123 647q0 147 102.5 249.5t251.5 102.5q144 0 249 -104.5t105 -247.5q0 -148 -103 -251t-251 -103q-149 0 -251.5 103t-102.5 251z" />
<glyph unicode="&#x2026;" horiz-adv-x="1665" d="M143 0v266h269v-266h-269zM698 0v266h269v-266h-269zM1253 0v266h269v-266h-269z" />
<glyph unicode="&#x202f;" horiz-adv-x="387" />
<glyph unicode="&#x2039;" horiz-adv-x="702" d="M82 481l289 439h250l-283 -439l283 -438h-250z" />
<glyph unicode="&#x203a;" horiz-adv-x="702" d="M82 43l283 438l-283 439h250l289 -439l-289 -438h-250z" />
<glyph unicode="&#x205f;" horiz-adv-x="483" />
<glyph unicode="&#x20ac;" d="M8 459l62 186h73q-4 27 -4 60l4 69h-135l62 187h110q66 207 228.5 331.5t388.5 124.5q64 0 131 -11.5t102 -23.5l35 -12v-242q-14 7 -38.5 17t-98 26.5t-142.5 16.5q-117 0 -205 -60.5t-139 -166.5h412v-187h-463q-4 -28 -4 -69l4 -60h371v-186h-330 q45 -117 137.5 -183.5t221.5 -66.5q64 0 135 18.5t110 36.5l39 19v-244q-16 -7 -43.5 -16.5t-105.5 -26t-146 -16.5q-227 0 -386.5 131t-221.5 348h-164z" />
<glyph unicode="&#x2122;" horiz-adv-x="1718" d="M123 1198v197h573v-197h-188v-563h-201v563h-184zM809 635v760h180l185 -250l180 250h180v-760h-199v424l-161 -213l-168 215v-426h-197z" />
<glyph unicode="&#x25fc;" horiz-adv-x="983" d="M0 0v983h983v-983h-983z" />
<glyph unicode="&#xfb03;" horiz-adv-x="1871" d="M61 758v221h134v139q0 58 12.5 109t43.5 97.5t78.5 80t122 53t169.5 19.5v-197q-97 0 -140 -38t-43 -97v-166h389v139q0 58 12.5 109t43.5 97.5t78.5 80t122 53t169.5 19.5v-197q-97 0 -139.5 -38t-42.5 -97v-166h633v-979h-250v758h-383v-758h-244v758h-389v-758h-243 v758h-134zM1450 1139v256h258v-256h-258z" />
<glyph unicode="&#xfb04;" horiz-adv-x="1845" d="M61 758v221h134v139q0 58 12.5 109t43.5 97.5t78.5 80t122 53t169.5 19.5v-197q-97 0 -140 -38t-43 -97v-166h389v139q0 74 21.5 135t68.5 112.5t132.5 80.5t203.5 29h439v-1475h-244v1280h-195q-97 0 -139.5 -38t-42.5 -97v-166h180v-221h-180v-758h-244v758h-389v-758 h-243v758h-134z" />
</font>
</defs>
</svg>
